<svg xmlns="http://www.w3.org/2000/svg" xmlns:xlink="http://www.w3.org/1999/xlink" version="1.1" id="Layer_1" x="0px" y="0px" width="400" height="210" viewBox="0 0 400 210" enable-background="new 0 0 400 210" xml:space="preserve" css-inspector-installed="true">
<path fill-rule="evenodd" clip-rule="evenodd" fill="#FFFFFF" d="M131.568,95.655c-11.621,10.07-25.134,17.844-34.154,22.611  c17.421-12.449,40.183-32.757,48.61-55.364C145.068,77.162,142.179,86.462,131.568,95.655L131.568,95.655z M85.042,43.147  c29.283-38.805,78.496-0.9,57.752,41.13c2.87-3.496,5.367-7.177,7.312-11.026c12.309-24.364-3.525-51.336-31.06-54.326  c-12.569-1.365-25.711,3.385-34.004,16.557l0,0h0C76.748,22.31,63.606,17.56,51.037,18.925c-27.534,2.99-43.368,29.962-31.06,54.326  c10.647,21.075,37.797,37.143,52.691,45.016c-14.787-10.416-35.02-24.496-43.977-43.216C9.519,34.98,60.108,9.635,85.042,43.147  L85.042,43.147L85.042,43.147L85.042,43.147z M79.196,150.802c-0.196,2.092-0.54,3.781-1.104,5.088  c-0.54,1.426-1.52,2.33-2.917,2.709c-1.422,0.381-2.845,0.572-4.315,0.572c-0.76,0.119-1.152,0.428-1.152,0.879  c0,0.736,0.81,1.094,2.378,1.094c6.177-0.191,8.327-0.465,11.49-0.404c6.623,0.129,9.046,0.594,27.824,0.832  c3.725,0.047,6.142-0.16,7.182-0.689c0.976-0.496,1.47-1.627,1.814-3.137c0.539-2.365,1.169-5.082,1.594-8.131  c0.433-3.109,0.563-5.158,0.563-6.133c0-1.426-0.27-2.164-0.833-2.164c-0.784,0-1.169,0.648-1.324,1.879  c-0.385,3.076-1.614,5.994-3.726,8.58c-1.617,1.982-4.046,3.08-6.986,3.543c-5.777,0.908-13.875,1.791-18.134-2.566  c-1.216-1.246-2.083-4.398-2.451-9.557c-1.477-15.814-0.71-32.504-0.711-48.496c0-7.295-0.242-15.725,0.165-23.094  c0.069-1.738,0.4-3.046,0.992-3.923c0.625-0.845,1.601-1.356,2.922-1.547c1.358-0.191,2.488-0.287,3.393-0.287  c0.453,0,0.713-0.191,0.783-0.591c0-0.494-0.522-0.732-1.566-0.732c-1.774,0-3.862,0.031-6.262,0.095  c-2.575,0.128-4.107,0.192-4.646,0.192c-1.774-0.128-5.584-0.224-11.428-0.287c-1.08,0-1.618,0.238-1.618,0.732  c0,0.399,0.277,0.591,0.834,0.591c1.218,0,2.349,0.096,3.41,0.287c1.706,0.255,2.853,0.83,3.445,1.738  c0.539,0.797,0.834,2.057,0.886,3.731c0.693,4.16,0.257,19.317,0.257,23.069v25.104C79.956,130.005,79.962,140.626,79.196,150.802  L79.196,150.802z M85.023,17.096l3.202,3.826h-6.403L85.023,17.096L85.023,17.096z M80.329,21.698l-4.184-5.001  c-0.051-0.041-0.093-0.092-0.123-0.147l-5.225-6.337C70.622,10,70.653,9.686,70.866,9.51l0.034-0.025l5.192-3.938l0.004-0.004  c0.098-0.104,0.231-0.157,0.364-0.157V5.384h8.546h0.005h0.004h8.546h0.007h0.007c0.123,0,0.235,0.044,0.322,0.117L99.18,9.48  c0.133,0.09,0.221,0.242,0.221,0.415c0,0.139-0.056,0.264-0.146,0.354l-5.265,6.343c-0.018,0.025-0.037,0.049-0.059,0.071  l-4.205,5.025c-0.019,0.029-0.04,0.057-0.064,0.082l-4.235,5.019c-0.091,0.123-0.238,0.203-0.403,0.203  c-0.166,0-0.313-0.081-0.404-0.205l-4.245-5.03C80.358,21.739,80.342,21.719,80.329,21.698L80.329,21.698z M77.544,16.812h6.408  l-3.204,3.829L77.544,16.812L77.544,16.812z M86.095,16.812h6.408l-3.204,3.829L86.095,16.812L86.095,16.812z M88.225,21.924  l-3.201,3.793l-3.201-3.793H88.225L88.225,21.924z M76.43,6.542l3.042,2.853h-6.803L76.43,6.542L76.43,6.542z M79.803,10.396  l-3.381,5.069l-4.179-5.069H79.803L79.803,10.396z M77.729,6.386h6.017l-3.003,2.816L77.729,6.386L77.729,6.386z M80.743,10.81  l3.334,4.999h-6.679L80.743,10.81L80.743,10.81z M85.011,6.574l3.008,2.82h-6.016L85.011,6.574L85.011,6.574z M81.672,10.396h6.678  l-3.339,5.007L81.672,10.396L81.672,10.396z M86.276,6.386h6.02l-3.01,2.822L86.276,6.386L86.276,6.386z M89.286,10.8l3.341,5.009  h-6.682L89.286,10.8L89.286,10.8z M97.404,9.395h-6.852l3.058-2.858L97.404,9.395L97.404,9.395z M97.835,10.396l-4.216,5.08  l-3.399-5.08H97.835L97.835,10.396z M353.925,137.647c0,8.064-0.154,13.949-0.451,17.645c-0.098,1.189-0.309,2.15-0.633,2.895  c-0.322,0.811-0.887,1.326-1.715,1.541c-0.818,0.217-1.646,0.326-2.492,0.326c-0.436,0.066-0.66,0.244-0.66,0.5  c0,0.418,0.449,0.623,1.365,0.623c3.699-0.109,6.373-0.176,8.021-0.23c1.73,0.162,8.457,0.311,20.18,0.473  c1.646,0,2.771-0.107,3.377-0.311c0.578-0.215,0.986-0.811,1.197-1.785c0.281-1.082,0.521-2.559,0.73-4.41  c0.254-1.814,0.381-2.979,0.381-3.479c0.043-0.744-0.127-1.137-0.535-1.189c-0.379,0-0.633,0.391-0.732,1.189  c-0.463,3.139-1.701,5.102-3.715,5.871c-1.098,0.367-2.406,0.609-3.912,0.719c-1.533,0.107-2.871,0.162-4.039,0.162  c-3.885,0.041-6.445-0.379-7.656-1.271c-1.209-0.936-1.842-2.734-1.898-5.398c-0.07-4.102-0.07-8.727,0-13.896v-7.129  c0-0.379,0.197-0.557,0.563-0.557c3.518,0,7.43,0.123,11.764,0.395c1.592,0.148,2.689,0.514,3.295,1.068  c0.533,0.582,0.857,1.176,0.971,1.771c0.211,1.029,0.322,1.922,0.322,2.652c0,0.5,0.199,0.758,0.592,0.758  c0.322,0,0.521-0.203,0.563-0.596c0-0.311,0-0.623,0-0.947c0-1.191,0.113-2.908,0.338-5.18c0.408-2.613,0.648-4.129,0.705-4.563  c0-0.418-0.156-0.635-0.451-0.635c-0.268,0-0.66,0.352-1.195,1.043c-0.676,0.715-1.971,1.096-3.912,1.148  c-1.254,0.055-3.49,0.082-6.713,0.082c-3.293,0.053-5.42,0.08-6.348,0.08c-0.408,0-0.563-0.27-0.492-0.797v-22.461  c0-0.527,0.168-0.798,0.492-0.798c0.83,0,2.66,0,5.502,0c2.857,0.054,4.771,0.136,5.742,0.244c2.139,0.216,3.617,0.567,4.447,1.067  c0.787,0.475,1.252,1.043,1.408,1.705c0.322,1.191,0.477,2.152,0.477,2.883c0,0.717,0.227,1.068,0.662,1.068  c0.352-0.039,0.563-0.352,0.605-0.906c0.17-1.867,0.309-3.652,0.408-5.345c0.381-2.097,0.604-3.368,0.662-3.789  c0-0.419-0.113-0.662-0.324-0.716c-0.381,0.054-0.746,0.189-1.127,0.405c-0.717,0.149-1.898,0.284-3.561,0.393  c-6.881,0.055-13.129,0.081-18.73,0.081c-1.436-0.107-4.531-0.189-9.289-0.243c-0.871,0-1.309,0.217-1.309,0.622  c0,0.339,0.225,0.501,0.676,0.501c0.986,0,1.9,0.081,2.76,0.243c1.379,0.217,2.307,0.704,2.785,1.461  c0.438,0.69,0.676,1.746,0.717,3.18c0.127,0.785,0.184,6.631,0.184,17.521V137.647L353.925,137.647z M290.181,111.265  L290.181,111.265c3.408,4.154,9.98,11.906,19.688,23.271c10.121,11.555,16.666,18.887,19.635,22.012  c3.537,3.709,5.365,5.441,5.521,5.197c0.285,0,0.492-0.313,0.584-0.947c0.051-0.664,0.076-2.26,0.076-4.805l0.143-47.598  c-0.051-2.436,0.143-4.193,0.557-5.276c0.338-1.083,1.09-1.731,2.256-1.948c0.855-0.162,1.465-0.243,1.801-0.243  c0.572,0,0.855-0.19,0.855-0.583c-0.051-0.364-0.506-0.54-1.359-0.54c-1.529,0-2.865,0.027-4.02,0.08  c-1.152,0.108-1.941,0.163-2.383,0.163c-1.322-0.107-3.941-0.189-7.842-0.243c-0.998,0-1.504,0.176-1.504,0.54  c-0.051,0.393,0.143,0.583,0.584,0.583c0.867,0,2.086,0.135,3.68,0.405c1.232,0.257,2.035,0.935,2.438,2.016  c0.336,1.137,0.504,3.033,0.504,5.684l0.857,41.293l0,0c-3.514-4.127-9.539-11.189-18.092-21.215  c-13.182-15.303-21.152-24.582-23.926-27.844c-0.389-0.501-0.83-1.043-1.283-1.625c-0.543-0.608-0.984-0.933-1.336-0.987  c-0.258,0-0.465,0.257-0.621,0.759c-0.143,0.58-0.221,1.689-0.221,3.327l-0.076,46.517c0,3.57-0.117,6.129-0.363,7.658  c-0.324,1.5-0.947,2.395-1.879,2.65c-1.324,0.406-2.359,0.555-3.1,0.488c-0.414,0-0.621,0.162-0.621,0.5  c0,0.418,0.402,0.623,1.219,0.623c3.758-0.109,6.182-0.176,7.23-0.23c0.83,0.055,3.488,0.121,7.971,0.23  c0.881,0,1.322-0.205,1.322-0.623c0-0.338-0.207-0.5-0.596-0.5c-0.855,0.066-2.113-0.082-3.746-0.488  c-0.959-0.256-1.67-1.096-2.137-2.488c-0.494-1.354-0.766-3.654-0.805-6.9L290.181,111.265L290.181,111.265z M216.567,130.409  c-0.123,17.064,13.385,29.107,26.92,27.877c-4.469-1.268-8.328-3.793-11.58-7.582c-5.01-5.52-7.543-13.043-7.598-22.555  c0.094-15.17,7.736-26.735,23.895-26.735c15.789,0,22.973,16.312,23.131,29.983c-0.059,5.844-0.873,10.58-2.449,14.193  c-1.59,3.68-3.617,6.521-6.066,8.523c-8.66,7.104-28.609,7.355-39.396,4.049c-10.492-3.219-17.164-11.045-28.335-24.143  c13.626-6.162,14.669-19.254,9.081-26.762c-0.674-0.902-1.232-1.758-1.902-2.422c-0.732-0.662-1.435-1.149-2.074-1.461  c-2.416-1.515-5.051-2.517-7.873-3.017c-2.837-0.366-5.737-0.555-8.715-0.555c-4.444,0.108-7.998,0.188-10.648,0.243  c-1.59-0.107-5.004-0.189-10.258-0.243c-0.968,0-1.45,0.202-1.45,0.622c0,0.339,0.249,0.501,0.748,0.501  c1.092,0,2.104,0.081,3.056,0.243c1.528,0.217,2.557,0.704,3.086,1.461c0.483,0.69,0.749,1.76,0.794,3.18  c0.141,0.799,0.204,6.645,0.204,17.535v14.301c0,8.064-0.172,13.936-0.484,17.645c-0.125,1.189-0.358,2.15-0.717,2.893  c-1.776,4.211-9.692-2.012-11.813-3.717c-2.347-1.887-4.792-4.402-7.508-7.621l-33.083-39.213c-1.953,1.225-3.873,2.381-5.735,3.465  c8.121,10.98,20.846,29.73,28.339,40.365c5.521,7.838,13.766,9.338,23.056,9.611c7.466,0.217,14.96-0.035,22.459,0.102  c0.967,0,1.45-0.217,1.45-0.637c0-0.256-0.234-0.42-0.701-0.5c-1.155,0-2.511-0.107-4.117-0.313  c-1.325-0.215-2.182-0.73-2.604-1.555c-0.468-0.744-0.764-1.719-0.872-2.91c-0.263-2.51-0.42-6.014-0.48-10.512h-0.014v-1.215  c-0.017-1.84-0.018-3.834-0.006-5.982v-1.963l0.006-0.111v-4.951l-0.006-0.105v-26.56c0-0.474,0.266-0.798,0.764-0.961  c1.154-0.257,3.18-0.433,6.081-0.514c10.304,0.189,15.543,5.616,15.73,16.265c-0.125,6.289-1.996,10.441-5.551,12.486  c-3.227,1.855-6.25,1.799-10.223,0.789c0.011,0.768,11.594,12.695,17.873,18.943c6.167,6.137,12.091,9.467,20.116,11.066  c14.947,2.982,38.387,2.402,49.25-9.447c5.826-6.293,8.768-14.086,8.811-23.395c-0.184-17.887-12.5-30.325-30.391-30.43  C230.692,99.128,216.421,111.804,216.567,130.409L216.567,130.409z M349.731,58.843c2.234,0,4.326,0.467,6.121,1.282  c-1.246-3.419-2.352-6.767-8.434-23.934c-0.379-1.28-0.805-1.28-1.283,0c-6.902,21.161-7.693,23.31-14.066,42.071  c-0.771,2.209-1.166,4.096-1.166,5.657c0,0.859,0.395,1.45,1.166,1.789c0.629,0.436,1.314,0.661,2.059,0.661h0.832  c0.555,0,0.832,0.168,0.832,0.521c-0.059,0.436-0.469,0.647-1.24,0.647c-2.787-0.113-5.004-0.183-6.625-0.239  c-1.633,0.057-4.814,0.126-9.568,0.239c-1.08,0-1.605-0.212-1.605-0.647c0.043-0.353,0.291-0.521,0.742-0.521  c0.805,0,1.621-0.057,2.48-0.17c1.898-0.281,3.4-1.14,4.465-2.604c1.08-1.407,1.969-3.181,2.656-5.334l19.213-52.458  c0.904-2.309,1.531-3.405,1.854-3.294c0.422-0.111,1.049,0.901,1.91,3.055c4.611,12.146,11.189,29.136,19.754,50.938  c1.518,3.603,2.918,6.023,4.215,7.263c1.182,1.239,2.203,1.943,3.064,2.098c1.355,0.422,2.48,0.576,3.4,0.507  c0.553,0,0.816,0.168,0.816,0.521c-0.045,0.436-0.613,0.647-1.693,0.647c-2.145,0-6.578-0.056-13.289-0.169  c-1.707,0-2.568-0.184-2.568-0.563c0-0.352,0.205-0.549,0.627-0.605c0.277-0.111,0.496-0.365,0.658-0.745  c0.115-0.324,0.057-0.845-0.162-1.535c-2.432-6.396-4.137-10.872-5.391-14.145c-0.992-2.59-2.586-8.538-10.506-8.538  c-5.145,0-9.533,2.478-11.266,5.966C338.327,62.51,343.472,58.843,349.731,58.843L349.731,58.843z M176.777,48.198V63.23  c0,6.15,0.153,10.726,0.445,13.681c0.23,3.054,0.751,4.941,1.535,5.658c0.646,0.634,1.737,1.109,3.286,1.436  c1.582,0.333,14.948,0.507,18.327,0.507c2.455,0,4.618-0.146,6.493-0.422c1.842-0.271,3.361-0.926,4.373-2.098  c1.324-1.532,2.094-3.26,2.336-5.081c0.096-0.728,0.338-1.112,0.828-1.112c0.354,0,0.523,0.438,0.523,1.281  c0,0.577-0.082,1.792-0.354,3.631c-0.266,1.805-0.662,3.415-0.998,4.813c-0.217,0.896-0.525,1.565-1.137,1.859  c-0.65,0.313-2.166,0.435-4.498,0.407c-11.76-0.14-30.604-0.417-34.752-0.492c-1.981-0.036-4.898,0.126-8.767,0.239  c-0.982,0-1.489-0.212-1.489-0.647c0-0.268,0.245-0.451,0.722-0.521c0.921,0,1.812-0.113,2.702-0.338  c0.875-0.226,1.489-0.76,1.827-1.605c0.353-0.774,0.567-1.773,0.69-3.011c0.308-3.857,0.477-9.98,0.477-18.368V48.184  c0-11.329-0.062-17.41-0.2-18.241c-0.046-1.478-0.307-2.589-0.782-3.293c-0.523-0.802-1.535-1.309-3.04-1.534  c-0.937-0.169-1.935-0.253-3.01-0.253c-0.492,0-0.736-0.17-0.736-0.521c0-0.437,0.476-0.646,1.428-0.646  c5.158,0.056,8.521,0.14,10.086,0.253c0.476,0,1.827-0.058,4.1-0.17c2.118-0.056,3.96-0.083,5.527-0.083  c0.92,0,1.382,0.21,1.382,0.646c-0.062,0.352-0.292,0.521-0.691,0.521c-0.798,0-1.796,0.084-2.994,0.253  c-1.166,0.168-2.027,0.619-2.58,1.365c-0.521,0.774-0.814,1.928-0.875,3.462c-0.061,1.099-0.093,2.814-0.093,5.124  C176.808,37.431,176.777,41.809,176.777,48.198L176.777,48.198z M271.892,48.198c0-6.39,0.031-10.768,0.092-13.132  c0-2.31,0.031-4.025,0.092-5.124c0.061-1.534,0.354-2.688,0.875-3.462c0.553-0.746,1.414-1.197,2.58-1.365  c1.197-0.169,2.195-0.253,2.994-0.253c0.398,0,0.629-0.17,0.691-0.521c0-0.437-0.461-0.646-1.383-0.646  c-1.566,0-3.408,0.027-5.527,0.083c-2.271,0.112-3.623,0.17-4.1,0.17c-1.564-0.113-4.928-0.197-10.086-0.253  c-0.953,0-1.428,0.21-1.428,0.646c0,0.352,0.244,0.521,0.736,0.521c1.074,0,2.072,0.084,3.01,0.253  c1.504,0.226,2.518,0.732,3.039,1.534c0.477,0.704,0.736,1.815,0.783,3.293c0.139,0.831,0.199,6.912,0.199,18.241v14.864  c0,8.388-0.168,14.511-0.477,18.368c-0.121,1.237-0.336,2.236-0.689,3.011c-0.338,0.846-0.953,1.38-1.828,1.605  c-0.891,0.225-1.781,0.338-2.701,0.338c-0.477,0.069-0.723,0.253-0.723,0.521c0,0.436,0.508,0.647,1.49,0.647  c3.869-0.113,6.785-0.275,8.768-0.239c4.148,0.075,22.992,0.353,34.752,0.492c2.334,0.027,3.848-0.095,4.498-0.407  c0.611-0.294,0.92-0.964,1.137-1.859c0.338-1.398,0.732-3.009,0.998-4.813c0.271-1.839,0.354-3.054,0.354-3.631  c0-0.844-0.168-1.281-0.523-1.281c-0.49,0-0.732,0.385-0.828,1.112c-0.242,1.821-1.01,3.549-2.334,5.081  c-1.012,1.172-2.533,1.826-4.375,2.098c-1.875,0.276-4.039,0.422-6.494,0.422c-3.377,0-16.744-0.174-18.326-0.507  c-1.549-0.326-2.641-0.802-3.285-1.436c-0.783-0.717-1.305-2.604-1.535-5.658c-0.291-2.955-0.445-7.53-0.445-13.681V48.198  L271.892,48.198z M238.161,48.198c0-6.39,0.031-10.768,0.092-13.132c0-2.31,0.031-4.025,0.092-5.124  c0.061-1.534,0.354-2.688,0.875-3.462c0.461-0.746,1.26-1.197,2.396-1.365c0.967-0.168,1.719-0.253,2.271-0.253  c0.414,0,0.645-0.169,0.705-0.521c0-0.437-0.475-0.646-1.441-0.646c-1.475,0-3.193,0.027-5.16,0.083  c-1.949,0.112-3.115,0.17-3.516,0.17c-1.75-0.113-4.742-0.197-8.996-0.253c-0.951,0-1.443,0.21-1.443,0.646  c0,0.353,0.246,0.521,0.705,0.521c0.783,0,1.721,0.112,2.795,0.337c1.889,0.324,2.887,1.915,2.994,4.743  c0.139,0.831,0.199,6.912,0.199,18.241v14.864c0,8.389-0.168,14.511-0.477,18.368c-0.121,1.237-0.352,2.236-0.705,3.011  c-0.338,0.846-0.967,1.38-1.857,1.605c-0.906,0.225-1.797,0.338-2.688,0.338c-0.461,0.069-0.707,0.253-0.707,0.521  c0,0.436,0.492,0.647,1.445,0.647c4.021-0.113,6.938-0.183,8.734-0.239c1.412,0.057,5.053,0.126,10.9,0.239  c0.953,0,1.443-0.226,1.443-0.661c0-0.268-0.244-0.438-0.705-0.521c-1.137,0-2.473-0.113-4.023-0.324  c-1.305-0.226-2.18-0.76-2.609-1.62c-0.475-0.76-0.768-1.772-0.875-3.011c-0.385-3.843-0.521-9.965-0.445-18.34V48.198  L238.161,48.198z M90.773,180.37c0,0.174-0.056,0.32-0.167,0.438c-3.015,2.615-4.844,4.141-5.486,4.578  c-2.736,1.803-5.625,2.703-8.668,2.703c-0.921,0-1.689-0.203-2.304-0.611c-0.223-0.145-0.684-0.566-1.382-1.264  c0-0.174,0.028-0.32,0.084-0.436c-0.894,0.553-1.717,0.988-2.471,1.309c-0.447,0-0.67-0.074-0.67-0.219  c0-0.203,0.126-0.451,0.377-0.742c2.429-1.221,4.998-2.965,7.706-5.232c0.028-0.059,0.041-0.102,0.041-0.131  c0.727-0.639,1.508-0.959,2.346-0.959c1.256,0,1.885,0.611,1.885,1.832c0,0.785-0.391,1.723-1.173,2.813s-1.479,1.809-2.094,2.158  c1.591,0,3.699-0.857,6.323-2.572c1.145-0.699,2.89-1.979,5.235-3.838c0.083-0.059,0.167-0.072,0.251-0.043  C90.718,180.181,90.773,180.255,90.773,180.37L90.773,180.37z M80.221,182.194c0-0.689-0.335-1.039-1.005-1.039  c-0.335,0-0.587,0.029-0.754,0.088c-1.954,1.758-3.643,3.139-5.067,4.148c0.139,0,0.251,0.016,0.335,0.045  c0.977,0.633,1.745,0.951,2.303,0.951c1.117,0,2.122-0.529,3.015-1.598C79.83,183.866,80.221,183.001,80.221,182.194L80.221,182.194  z M106.771,180.37c0-0.115-0.056-0.189-0.167-0.217c-0.083-0.029-0.167-0.016-0.251,0.043c-2.82,2.195-4.551,3.51-5.193,3.939  c-2.541,1.795-4.412,2.689-5.612,2.689c-0.949,0-1.424-0.502-1.424-1.512c0-0.32,0.216-0.873,0.649-1.666  c0.433-0.791,0.649-1.293,0.649-1.488c0-0.291-0.167-0.438-0.502-0.438c-0.335-0.059-0.782,0.248-1.34,0.916  c-0.754,0.902-1.326,1.498-1.717,1.789c-1.592,1.104-3.057,1.656-4.397,1.656c-0.391,0-0.586-0.291-0.586-0.871  c0-0.902,0.649-1.934,1.947-3.098c1.298-1.162,2.478-1.744,3.539-1.744c0.418,0,0.726,0.203,0.921,0.611  c0.196,0.406,0.279,0.609,0.252,0.609c0.334,0.059,0.663-0.057,0.984-0.348c0.321-0.291,0.481-0.684,0.481-1.178  s-0.489-0.742-1.465-0.742c-1.62,0-3.483,0.857-5.591,2.574c-2.108,1.715-3.162,3.168-3.162,4.359c0,0.408,0.223,0.734,0.67,0.982  c0.447,0.246,0.921,0.371,1.424,0.371c0.67,0,1.605-0.307,2.806-0.916c1.117-0.582,2.011-1.164,2.681-1.746  c0,2.152,0.726,3.229,2.178,3.229c1.703,0,3.853-0.924,6.449-2.777c1.062-0.748,2.932-2.281,5.612-4.592  C106.715,180.69,106.771,180.544,106.771,180.37L106.771,180.37z M122.643,180.284c0,0.182-0.056,0.342-0.167,0.486  c-0.894,1.09-2.178,2.268-3.853,3.531c-2.317,1.738-4.258,2.609-5.821,2.609c-0.753,0-1.619-0.553-2.596-1.656  c-1.982,2.064-3.629,3.096-4.941,3.096c-0.587,0-1.089-0.182-1.508-0.545c-0.419-0.363-0.628-0.836-0.628-1.418  c0-1.365,0.949-3.371,2.848-6.018c0.14-0.203,0.391-0.305,0.754-0.305c0.224,0,0.335,0.072,0.335,0.219  c0,0.057-0.014,0.115-0.042,0.174c-0.224,0-0.691,0.646-1.403,1.939c-0.712,1.295-1.068,2.275-1.068,2.943  c0,1.105,0.489,1.658,1.466,1.658c0.782,0,2.024-0.799,3.727-2.398c-0.475-0.668-0.712-1.584-0.712-2.748  c0-0.697,0.188-1.309,0.565-1.83c0.377-0.523,0.858-0.785,1.445-0.785c1.005,0,1.508,0.596,1.508,1.787  c0,1.309-0.53,2.529-1.591,3.664c0.698,0.93,1.354,1.395,1.968,1.395c1.172,0,2.806-0.705,4.9-2.123  c1.955-1.328,3.42-2.607,4.397-3.852c0.056-0.086,0.139-0.102,0.251-0.043C122.586,180.095,122.643,180.167,122.643,180.284  L122.643,180.284z M111.922,181.155c0-0.785-0.237-1.178-0.712-1.178c-0.894,0-1.34,0.566-1.34,1.701  c0,0.871,0.182,1.629,0.544,2.268c0.643-0.785,0.992-1.221,1.047-1.309C111.769,182.173,111.922,181.679,111.922,181.155  L111.922,181.155z M125.825,177.362c0,0.756-0.502,1.133-1.507,1.133c-1.005,0-1.508-0.377-1.508-1.133  c0-0.785,0.502-1.178,1.508-1.178C125.323,176.185,125.825,176.577,125.825,177.362L125.825,177.362z M132.149,180.37  c0-0.115-0.056-0.189-0.167-0.217c-0.084-0.029-0.167-0.016-0.251,0.043c-5.36,4.215-8.613,6.322-9.757,6.322  c-0.949,0-1.424-0.553-1.424-1.656c0-0.844,0.397-1.76,1.193-2.748s1.193-1.584,1.193-1.787c0-0.232-0.167-0.35-0.502-0.35  c-0.642,0.146-1.438,0.844-2.387,2.094c-1.005,1.338-1.508,2.516-1.508,3.531c0,0.611,0.314,1.143,0.942,1.592  c0.628,0.451,1.319,0.676,2.073,0.676c1.173,0,2.904-0.871,5.193-2.615c0.698-0.523,2.443-2.006,5.235-4.447  C132.093,180.69,132.149,180.544,132.149,180.37L132.149,180.37z M150.282,180.37c0,0.174-0.056,0.32-0.167,0.438  c-2.54,2.209-4.285,3.646-5.235,4.316c-2.373,1.656-4.411,2.486-6.114,2.486c-1.479,0-2.22-0.814-2.22-2.443  c0-0.639,0.14-1.525,0.419-2.66c-1.955,1.164-4.006,2.457-6.156,3.881c-1.535,1.047-2.359,1.57-2.471,1.57  c-0.056,0-0.161-0.059-0.314-0.174c-0.154-0.117-0.23-0.203-0.23-0.262c0-0.379,0.488-1.279,1.465-2.703  c1.117-1.658,1.759-2.676,1.927-3.053c-0.084-0.203-0.125-0.438-0.125-0.699c0-0.232,0.167-0.465,0.502-0.697  c0.334-0.232,0.614-0.348,0.837-0.348c0.894,0,1.34,0.348,1.34,1.045c0,0.234-0.419,0.918-1.256,2.051  c-0.754,1.018-1.327,1.729-1.717,2.137c4.942-3.488,8.11-5.232,9.506-5.232c0.195,0,0.293,0.174,0.293,0.521  c0,0.059-0.398,0.561-1.194,1.506s-1.193,1.854-1.193,2.725c0,0.988,0.656,1.482,1.976,1.482c1.04,0,2.673-0.799,4.913-2.398  c0.454-0.289,2.045-1.512,4.795-3.662c0.083-0.059,0.167-0.072,0.251-0.043C150.226,180.181,150.282,180.255,150.282,180.37  L150.282,180.37z M165.86,180.37c0,0.174-0.056,0.32-0.167,0.438c-2.764,2.412-4.264,3.705-4.516,3.881  c-1.982,1.512-4.215,2.703-6.693,3.574c-1.814,2.443-4.809,5.336-8.997,8.678c-5.744,4.594-10.273,6.891-13.589,6.891  c-0.865,0-1.584-0.24-2.156-0.719c-0.572-0.48-0.859-1.084-0.859-1.811c0-3.227,3.343-6.162,10.037-8.809  c1.528-0.611,4.125-1.498,7.775-2.66s5.772-1.859,6.358-2.094c1.863-2.092,2.799-4.098,2.799-6.018c0-1.307-0.719-1.961-2.164-1.961  c-1.11,0-2.15,0.291-3.12,0.871c-1.054,0.611-1.584,1.322-1.584,2.137c0,1.105,0.433,1.658,1.298,1.658  c0.642,0,1.535-0.291,2.68-0.873c0.642-0.348,1.284-0.697,1.926-1.047l-0.293,0.566c-0.733,0.467-1.459,0.932-2.192,1.396  c-1.207,0.697-2.317,1.047-3.322,1.047c-0.621,0-1.11-0.203-1.479-0.611c-0.363-0.406-0.544-0.916-0.544-1.525  c0-0.988,0.803-1.984,2.415-2.988c1.612-1.002,3.12-1.504,4.523-1.504c1.04,0,1.877,0.277,2.52,0.828  c0.649,0.553,0.97,1.279,0.97,2.182c0,1.221-0.656,2.877-1.968,4.971c1.724-0.582,5.032-2.807,9.925-6.672  c0.084-0.059,0.168-0.072,0.251-0.043C165.804,180.181,165.86,180.255,165.86,180.37L165.86,180.37z M152.417,188.874  c-2.429,0.727-4.872,1.453-7.329,2.18c-4.215,1.279-7.482,2.559-9.799,3.838c-3.294,1.803-4.941,3.633-4.941,5.494  c0,0.697,0.363,1.293,1.089,1.787c0.642,0.408,1.326,0.611,2.052,0.611c0.838,0,2.01-0.32,3.518-0.959  c1.62-0.668,3.085-1.498,4.397-2.486C146.736,195.327,150.408,191.839,152.417,188.874L152.417,188.874z M201.624,180.458  c0,0.168-0.056,0.313-0.167,0.428c-2.401,2.072-4.244,3.547-5.528,4.441c-2.541,1.693-4.662,2.543-6.365,2.543  c-1.536,0-2.303-0.756-2.303-2.268c0-1.045,0.265-2.092,0.795-3.139c-0.335,0-0.935,0.27-1.801,0.814  c-1.368,0.916-2.108,1.402-2.22,1.461c-1.229,0.711-2.436,1.416-3.622,2.1c-1.187,0.689-1.933,1.031-2.241,1.031  c-0.502,0-0.753-0.246-0.753-0.727c0-0.465,0.349-1.133,1.047-2.02c0.865-1.063,1.731-2.123,2.597-3.184  c-5.947,3.953-9.087,5.93-9.423,5.93c-0.419,0-0.628-0.188-0.628-0.574c0-0.027,0.732-0.863,2.198-2.514  c1.466-1.643,2.199-2.732,2.199-3.256c0-0.182-0.167-0.283-0.502-0.313s-0.502-0.117-0.502-0.262c0-0.299,0.188-0.574,0.565-0.836  c0.377-0.27,0.733-0.4,1.068-0.4c0.865,0,1.298,0.494,1.298,1.484c0,0.436-0.251,0.965-0.761,1.59s-1.005,1.244-1.5,1.854  c1.814-1.133,3.644-2.268,5.486-3.4c0.949-0.582,1.633-0.873,2.052-0.873c0.698,0,1.046,0.277,1.046,0.83  c0,0.377-0.418,1.031-1.256,1.961c-1.033,1.135-1.675,1.977-1.927,2.529c3.797-2.355,6.212-3.809,7.245-4.361  c1.34-0.727,2.359-1.09,3.057-1.09c0.168,0,0.252,0.176,0.252,0.523c0,0.029-0.342,0.596-1.026,1.701  c-0.684,1.105-1.025,2.006-1.025,2.703c0,1.076,0.474,1.613,1.423,1.613c1.201,0,3.071-0.871,5.612-2.623  c0.865-0.574,2.597-1.867,5.192-3.873c0.084-0.059,0.168-0.074,0.252-0.045C201.568,180.269,201.624,180.341,201.624,180.458  L201.624,180.458z M213.349,180.37c0-0.115-0.055-0.189-0.166-0.217c-0.113-0.059-0.197-0.045-0.252,0.043  c-1.117,1.221-2.541,2.471-4.271,3.75c-2.01,1.482-3.436,2.225-4.271,2.225c-0.503,0-0.921-0.176-1.256-0.523  c1.563-1.367,2.344-2.777,2.344-4.23c0-1.279-0.67-1.918-2.009-1.918c-1.34,0-2.988,0.828-4.941,2.486  c-2.01,1.771-3.015,3.4-3.015,4.883c0,1.076,0.67,1.613,2.01,1.613c0.921,0,1.954-0.305,3.099-0.916  c0.949-0.523,1.535-0.975,1.759-1.352c0.53,0.523,1.159,0.785,1.884,0.785c1.032,0,2.583-0.771,4.649-2.311  c1.896-1.367,3.322-2.646,4.271-3.838C213.294,180.733,213.349,180.573,213.349,180.37L213.349,180.37z M204.89,181.112  c0,1.221-0.78,2.484-2.345,3.793c-0.362-0.348-0.544-1.002-0.544-1.963c0-0.639,0.224-1.227,0.67-1.766  c0.446-0.537,0.949-0.807,1.508-0.807C204.653,180.37,204.89,180.618,204.89,181.112L204.89,181.112z M201.917,185.56  c-0.503-0.553-0.753-1.25-0.753-2.094c0-1.191,0.236-2.02,0.711-2.484c-3.099,1.482-4.648,3.037-4.648,4.666  c0,0.988,0.391,1.482,1.173,1.482C199.488,187.13,200.661,186.606,201.917,185.56L201.917,185.56z M239.856,180.458  c0,0.168-0.055,0.313-0.166,0.428c-2.4,2.072-4.244,3.547-5.527,4.441c-2.541,1.693-4.664,2.543-6.365,2.543  c-1.537,0-2.305-0.756-2.305-2.268c0-1.045,0.266-2.092,0.797-3.139c-0.336,0-0.936,0.27-1.801,0.814  c-1.369,0.916-2.109,1.402-2.221,1.461c-1.229,0.711-2.436,1.416-3.621,2.1c-1.188,0.689-1.934,1.031-2.24,1.031  c-0.504,0-0.754-0.246-0.754-0.727c0-0.465,0.348-1.133,1.045-2.02c0.867-1.063,1.732-2.123,2.598-3.184  c-5.947,3.953-9.088,5.93-9.422,5.93c-0.42,0-0.629-0.188-0.629-0.574c0-0.027,0.732-0.863,2.199-2.514  c1.465-1.643,2.197-2.732,2.197-3.256c0-0.182-0.166-0.283-0.502-0.313s-0.502-0.117-0.502-0.262c0-0.299,0.188-0.574,0.564-0.836  c0.377-0.27,0.732-0.4,1.068-0.4c0.865,0,1.299,0.494,1.299,1.484c0,0.436-0.252,0.965-0.762,1.59s-1.004,1.244-1.5,1.854  c1.814-1.133,3.643-2.268,5.486-3.4c0.949-0.582,1.633-0.873,2.051-0.873c0.699,0,1.047,0.277,1.047,0.83  c0,0.377-0.418,1.031-1.256,1.961c-1.033,1.135-1.676,1.977-1.926,2.529c3.797-2.355,6.211-3.809,7.244-4.361  c1.34-0.727,2.359-1.09,3.057-1.09c0.168,0,0.252,0.176,0.252,0.523c0,0.029-0.342,0.596-1.025,1.701s-1.027,2.006-1.027,2.703  c0,1.076,0.475,1.613,1.426,1.613c1.199,0,3.07-0.871,5.609-2.623c0.867-0.574,2.598-1.867,5.193-3.873  c0.084-0.059,0.168-0.074,0.252-0.045C239.802,180.269,239.856,180.341,239.856,180.458L239.856,180.458z M248.61,180.37  c0-0.115-0.057-0.189-0.168-0.217c-0.084-0.029-0.168-0.016-0.252,0.043c-2.881,2.252-4.605,3.568-5.156,3.939  c-2.584,1.795-4.566,2.689-5.955,2.689c-0.523,0-0.998-0.146-1.416-0.438c-0.58-0.371-0.83-0.922-0.746-1.643  c1.15-0.58,2.127-1.227,2.924-1.955c0.467-0.406,0.936-0.828,1.402-1.277c0.467-0.451,0.697-0.918,0.697-1.41  c0-0.32-0.139-0.598-0.418-0.844c-0.279-0.248-0.572-0.371-0.879-0.371c-1.006,0-2.178,0.764-3.518,2.283  c-1.34,1.518-2.012,2.898-2.012,4.143c0,1.91,0.908,2.863,2.723,2.863c2.01,0,4.342-0.924,6.994-2.777  c1.033-0.689,2.904-2.223,5.611-4.592C248.554,180.69,248.61,180.544,248.61,180.37L248.61,180.37z M238.226,180.544  c0-0.203-0.154-0.305-0.461-0.305c-0.447,0-1.033,0.4-1.76,1.199c-0.727,0.801-1.088,1.49-1.088,2.072  c0.139-0.029,0.377-0.102,0.711-0.219C237.358,182.216,238.226,181.302,238.226,180.544L238.226,180.544z M266.743,180.37  c0,0.174-0.057,0.32-0.168,0.438c-2.541,2.209-4.285,3.646-5.234,4.316c-2.373,1.656-4.41,2.486-6.113,2.486  c-1.48,0-2.221-0.814-2.221-2.443c0-0.639,0.141-1.525,0.418-2.66c-1.953,1.164-4.006,2.457-6.154,3.881  c-1.535,1.047-2.359,1.57-2.471,1.57c-0.057,0-0.162-0.059-0.314-0.174c-0.154-0.117-0.23-0.203-0.23-0.262  c0-0.379,0.488-1.279,1.465-2.703c1.117-1.658,1.76-2.676,1.928-3.053c-0.084-0.203-0.127-0.438-0.127-0.699  c0-0.232,0.168-0.465,0.504-0.697c0.334-0.232,0.613-0.348,0.838-0.348c0.893,0,1.34,0.348,1.34,1.045  c0,0.234-0.42,0.918-1.258,2.051c-0.754,1.018-1.326,1.729-1.717,2.137c4.941-3.488,8.111-5.232,9.506-5.232  c0.197,0,0.295,0.174,0.295,0.521c0,0.059-0.398,0.561-1.195,1.506c-0.795,0.945-1.193,1.854-1.193,2.725  c0,0.988,0.658,1.482,1.977,1.482c1.039,0,2.672-0.799,4.914-2.398c0.453-0.289,2.045-1.512,4.795-3.662  c0.082-0.059,0.166-0.072,0.25-0.043C266.687,180.181,266.743,180.255,266.743,180.37L266.743,180.37z M286.091,171.476  l-10.26-0.438l3.393-3.139c0.082-0.088,0.082-0.232,0-0.436c-0.113-0.176-0.238-0.262-0.377-0.262c-0.447,0-0.768,0.102-0.963,0.305  l-3.477,3.531h-14.951c-0.475,0-0.74,0.117-0.795,0.35c-0.111,0.465,0.014,0.697,0.377,0.697l13.986,0.393  c-1.871,2.057-3.754,4.1-5.654,6.127c-2.623,3.104-3.936,5.451-3.936,7.049c0,0.699,0.203,1.287,0.607,1.781s0.928,0.742,1.57,0.742  c1.703,0,3.84-0.924,6.408-2.777c1.061-0.748,2.932-2.281,5.611-4.592c0.111-0.117,0.166-0.264,0.166-0.438  c0-0.115-0.055-0.189-0.166-0.217c-0.084-0.029-0.168-0.016-0.252,0.043c-1.646,1.301-3.295,2.588-4.941,3.852  c-2.457,1.736-4.396,2.602-5.82,2.602c-1.09,0-1.635-0.436-1.635-1.301c0-1.338,1.299-3.553,3.895-6.656  c0.279-0.32,2.164-2.393,5.654-6.215h8.166c1.229,0,1.857,0,1.885,0C285.589,172.354,286.091,172.021,286.091,171.476  L286.091,171.476z M289.692,180.37c0,0.174-0.057,0.32-0.168,0.438c-3.016,2.615-4.844,4.141-5.486,4.578  c-2.736,1.803-5.625,2.703-8.668,2.703c-0.922,0-1.689-0.203-2.303-0.611c-0.225-0.145-0.686-0.566-1.383-1.264  c0-0.174,0.027-0.32,0.084-0.436c-0.895,0.553-1.717,0.988-2.471,1.309c-0.447,0-0.67-0.074-0.67-0.219  c0-0.203,0.125-0.451,0.377-0.742c2.428-1.221,4.996-2.965,7.705-5.232c0.027-0.059,0.041-0.102,0.041-0.131  c0.727-0.639,1.508-0.959,2.346-0.959c1.258,0,1.885,0.611,1.885,1.832c0,0.785-0.391,1.723-1.172,2.813s-1.48,1.809-2.094,2.158  c1.59,0,3.699-0.857,6.322-2.572c1.146-0.699,2.891-1.979,5.234-3.838c0.084-0.059,0.168-0.072,0.252-0.043  C289.636,180.181,289.692,180.255,289.692,180.37L289.692,180.37z M279.14,182.194c0,0.807-0.391,1.672-1.174,2.596  c-0.893,1.068-1.898,1.598-3.014,1.598c-0.559,0-1.328-0.318-2.305-0.951c-0.084-0.029-0.195-0.045-0.336-0.045  c1.426-1.01,3.113-2.391,5.068-4.148c0.168-0.059,0.418-0.088,0.754-0.088C278.804,181.155,279.14,181.505,279.14,182.194  L279.14,182.194z M318.671,160.966c0,1.25-1.34,3.459-4.02,6.629c-2.568,3.021-5.359,5.756-8.375,8.197  c-2.875,2.355-5.527,4.156-7.957,5.408l-1.508,2.789h6.449c0.502,0,0.754,0.248,0.754,0.742c0,0.291-0.252,0.451-0.754,0.48  l-7.496,0.305c-2.568,3.459-4.117,5.494-4.648,6.105c-1.172,1.48-2.861,3.385-5.066,5.711c-1.48,1.57-3.086,2.965-4.816,4.188  c-2.904,2.063-5.473,3.096-7.707,3.096c-0.725,0-1.34-0.197-1.842-0.59c-0.502-0.391-0.754-0.85-0.754-1.373  c0-0.609,0.336-0.916,1.006-0.916c0,0,0.404,0.363,1.215,1.09c0.641,0.582,1.256,0.873,1.842,0.873c1.117,0,2.645-0.596,4.586-1.787  c1.939-1.193,3.789-2.719,5.549-4.58c2.121-2.238,4.145-4.68,6.072-7.326c1.787-2.471,2.68-3.967,2.68-4.49h-0.418  c-0.615,0-0.922-0.277-0.922-0.828c0-0.467,0.502-0.699,1.508-0.699h1.172c1.006-1.744,3.113-5.059,6.324-9.941  c6.813-9.914,11.922-14.871,15.328-14.871c0.529,0,0.963,0.176,1.297,0.523C318.505,160.05,318.671,160.472,318.671,160.966  L318.671,160.966z M317.165,160.966c0,1.744-1.551,4.359-4.648,7.85c-2.904,3.313-5.682,5.799-8.334,7.457  c-2.373,1.568-4.203,2.805-5.486,3.705c3.07-4.738,5.457-8.314,7.16-10.727c1.592-2.238,3.428-4.332,5.508-6.279  s3.566-2.922,4.459-2.922C316.718,160.05,317.165,160.354,317.165,160.966L317.165,160.966z M322.356,180.37  c0-0.115-0.055-0.189-0.168-0.217c-0.111-0.059-0.195-0.045-0.25,0.043c-1.117,1.221-2.541,2.471-4.271,3.75  c-2.01,1.482-3.434,2.225-4.271,2.225c-0.502,0-0.922-0.176-1.256-0.523c1.563-1.367,2.344-2.777,2.344-4.23  c0-1.279-0.67-1.918-2.01-1.918s-2.986,0.828-4.941,2.486c-2.01,1.771-3.016,3.4-3.016,4.883c0,1.076,0.67,1.613,2.01,1.613  c0.922,0,1.955-0.305,3.1-0.916c0.949-0.523,1.535-0.975,1.76-1.352c0.529,0.523,1.158,0.785,1.883,0.785  c1.033,0,2.584-0.771,4.648-2.311c1.9-1.367,3.322-2.646,4.271-3.838C322.302,180.733,322.356,180.573,322.356,180.37  L322.356,180.37z M313.897,181.112c0-0.494-0.236-0.742-0.711-0.742c-0.559,0-1.061,0.27-1.508,0.807  c-0.447,0.539-0.67,1.127-0.67,1.766c0,0.961,0.182,1.615,0.543,1.963C313.116,183.597,313.897,182.333,313.897,181.112  L313.897,181.112z M310.925,185.56c-0.502-0.553-0.754-1.25-0.754-2.094c0-1.191,0.236-2.02,0.713-2.484  c-3.1,1.482-4.65,3.037-4.65,4.666c0,0.988,0.391,1.482,1.174,1.482C308.495,187.13,309.669,186.606,310.925,185.56L310.925,185.56z   M336.595,180.327c0-0.117-0.055-0.189-0.166-0.219c-0.084-0.029-0.168-0.014-0.252,0.045c-2.896,2.295-4.689,3.676-5.381,4.143  c-2.785,1.889-4.941,2.834-6.477,2.834c-0.412,0-0.77-0.152-1.063-0.459c-0.293-0.305-0.439-0.66-0.439-1.068  c0-0.58,0.551-1.402,1.654-2.463s1.654-1.896,1.654-2.508c0-0.58-0.383-0.871-1.158-0.871c-0.328,0-1.047,0.115-2.15,0.348  c0.838-0.814,1.256-1.547,1.256-2.193c0-0.371-0.236-0.553-0.711-0.553c-0.559,0-1.277,0.486-2.156,1.461  c-0.881,0.973-1.32,1.736-1.32,2.289c0,0.203,0.098,0.406,0.293,0.609c-2.959,2.326-5.178,3.795-6.658,4.404  c-0.252,0.291-0.377,0.539-0.377,0.742c0,0.145,0.223,0.219,0.67,0.219c1.871-0.844,4.244-2.529,7.119-5.059h0.127  c0.361,0,0.857-0.051,1.486-0.154c0.627-0.102,1.193-0.152,1.695-0.152c-0.641,0.756-1.297,1.498-1.969,2.225  c-0.725,0.9-1.088,1.613-1.088,2.137c0,0.582,0.23,1.105,0.691,1.57s0.969,0.697,1.527,0.697c2.094,0,4.523-0.959,7.287-2.877  c1.09-0.758,3.002-2.326,5.738-4.711C336.54,180.647,336.595,180.501,336.595,180.327L336.595,180.327z M345.349,180.37  c0,0.174-0.057,0.32-0.168,0.438c-2.709,2.369-4.578,3.902-5.611,4.592c-2.652,1.854-4.984,2.777-6.994,2.777  c-1.814,0-2.723-0.953-2.723-2.863c0-1.244,0.67-2.625,2.01-4.143c1.342-1.52,2.514-2.283,3.52-2.283c0.307,0,0.6,0.123,0.879,0.371  c0.279,0.246,0.418,0.523,0.418,0.844c0,0.492-0.23,0.959-0.697,1.41c-0.469,0.449-0.936,0.871-1.402,1.277  c-0.797,0.729-1.773,1.375-2.926,1.955c-0.084,0.721,0.168,1.271,0.748,1.643c0.418,0.291,0.893,0.438,1.416,0.438  c1.389,0,3.371-0.895,5.953-2.689c0.553-0.371,2.275-1.688,5.158-3.939c0.084-0.059,0.168-0.072,0.252-0.043  C345.292,180.181,345.349,180.255,345.349,180.37L345.349,180.37z M334.962,180.544c0,0.758-0.865,1.672-2.596,2.748  c-0.336,0.117-0.572,0.189-0.713,0.219c0-0.582,0.363-1.271,1.09-2.072c0.725-0.799,1.311-1.199,1.758-1.199  C334.81,180.239,334.962,180.341,334.962,180.544L334.962,180.544z M361.261,180.284c0-0.117-0.055-0.189-0.166-0.219  c-0.113-0.059-0.197-0.043-0.252,0.043c-0.977,1.244-2.443,2.523-4.398,3.852c-2.094,1.418-3.727,2.123-4.898,2.123  c-0.615,0-1.271-0.465-1.969-1.395c1.061-1.135,1.592-2.355,1.592-3.664c0-1.191-0.502-1.787-1.508-1.787  c-0.586,0-1.068,0.262-1.445,0.785c-0.377,0.521-0.564,1.133-0.564,1.83c0,1.164,0.236,2.08,0.711,2.748  c-1.703,1.6-2.945,2.398-3.727,2.398c-0.977,0-1.465-0.553-1.465-1.658c0-0.668,0.355-1.648,1.066-2.943  c0.713-1.293,1.18-1.939,1.404-1.939c0.027-0.059,0.041-0.117,0.041-0.174c0-0.146-0.111-0.219-0.334-0.219  c-0.363,0-0.615,0.102-0.754,0.305c-1.898,2.646-2.848,4.652-2.848,6.018c0,0.582,0.209,1.055,0.627,1.418  c0.42,0.363,0.922,0.545,1.508,0.545c1.313,0,2.959-1.031,4.941-3.096c0.979,1.104,1.844,1.656,2.598,1.656  c1.563,0,3.502-0.871,5.82-2.609c1.676-1.264,2.959-2.441,3.854-3.531C361.206,180.626,361.261,180.466,361.261,180.284  L361.261,180.284z M350.54,181.155c0,0.523-0.152,1.018-0.461,1.482c-0.055,0.088-0.404,0.523-1.047,1.309  c-0.361-0.639-0.543-1.396-0.543-2.268c0-1.135,0.445-1.701,1.34-1.701C350.304,179.978,350.54,180.37,350.54,181.155  L350.54,181.155z M370.013,180.37c0,0.174-0.055,0.32-0.166,0.438c-2.709,2.369-4.58,3.902-5.611,4.592  c-2.652,1.854-4.984,2.777-6.994,2.777c-1.814,0-2.723-0.953-2.723-2.863c0-1.244,0.67-2.625,2.01-4.143  c1.34-1.52,2.514-2.283,3.518-2.283c0.309,0,0.602,0.123,0.881,0.371c0.279,0.246,0.418,0.523,0.418,0.844  c0,0.492-0.23,0.959-0.697,1.41c-0.469,0.449-0.936,0.871-1.404,1.277c-0.795,0.729-1.771,1.375-2.924,1.955  c-0.084,0.721,0.168,1.271,0.748,1.643c0.418,0.291,0.893,0.438,1.416,0.438c1.389,0,3.371-0.895,5.953-2.689  c0.551-0.371,2.275-1.688,5.158-3.939c0.084-0.059,0.168-0.072,0.252-0.043C369.958,180.181,370.013,180.255,370.013,180.37  L370.013,180.37z M359.628,180.544c0,0.758-0.865,1.672-2.596,2.748c-0.336,0.117-0.572,0.189-0.713,0.219  c0-0.582,0.363-1.271,1.09-2.072c0.725-0.799,1.313-1.199,1.758-1.199C359.476,180.239,359.628,180.341,359.628,180.544  L359.628,180.544z M384.251,180.327c0,0.174-0.055,0.32-0.166,0.436c-2.736,2.385-4.648,3.953-5.738,4.711  c-2.764,1.918-5.191,2.877-7.285,2.877c-0.559,0-1.068-0.232-1.529-0.697s-0.691-0.988-0.691-1.57c0-0.523,0.363-1.236,1.088-2.137  c0.672-0.727,1.328-1.469,1.969-2.225c-0.502,0-1.066,0.051-1.695,0.152c-0.629,0.104-1.123,0.154-1.486,0.154h-0.127  c-2.875,2.529-5.248,4.215-7.119,5.059c-0.445,0-0.67-0.074-0.67-0.219c0-0.203,0.127-0.451,0.377-0.742  c1.48-0.609,3.699-2.078,6.658-4.404c-0.195-0.203-0.293-0.406-0.293-0.609c0-0.553,0.441-1.316,1.32-2.289  c0.879-0.975,1.598-1.461,2.156-1.461c0.475,0,0.711,0.182,0.711,0.553c0,0.646-0.418,1.379-1.256,2.193  c1.104-0.232,1.822-0.348,2.15-0.348c0.775,0,1.158,0.291,1.158,0.871c0,0.611-0.551,1.447-1.654,2.508  c-1.102,1.061-1.654,1.883-1.654,2.463c0,0.408,0.146,0.764,0.441,1.068c0.293,0.307,0.648,0.459,1.061,0.459  c1.535,0,3.691-0.945,6.477-2.834c0.691-0.467,2.484-1.848,5.381-4.143c0.084-0.059,0.168-0.074,0.252-0.045  C384.196,180.138,384.251,180.21,384.251,180.327z"/>
<div xmlns="" id="divScriptsUsed" style="display: none"/><script xmlns="" id="globalVarsDetection" src="chrome-extension://cmkdbmfndkfgebldhnkbfhlneefdaaip/js/wrs_env.js"/></svg>