<svg xmlns="http://www.w3.org/2000/svg" xmlns:xlink="http://www.w3.org/1999/xlink" version="1.1" id="Layer_1" x="0px" y="0px" width="70" height="70" viewBox="0 0 70 70" enable-background="new 0 0 70 70" xml:space="preserve" css-inspector-installed="true">
<g>
	<path fill="#424143" d="M29.297,64.515c-0.086,0.92-0.237,1.662-0.485,2.238c-0.237,0.628-0.668,1.024-1.283,1.192   c-0.625,0.167-1.251,0.251-1.898,0.251c-0.334,0.052-0.507,0.188-0.507,0.388c0,0.323,0.356,0.48,1.046,0.48   c2.719-0.084,3.665-0.205,5.057-0.177c2.915,0.055,3.981,0.261,12.244,0.365c1.64,0.02,2.703-0.07,3.16-0.304   c0.43-0.218,0.647-0.716,0.799-1.381c0.237-1.039,0.515-2.236,0.701-3.577c0.19-1.368,0.249-2.27,0.249-2.699   c0-0.627-0.119-0.952-0.368-0.952c-0.345,0-0.514,0.286-0.581,0.826c-0.17,1.354-0.711,2.639-1.641,3.776   c-0.711,0.872-1.779,1.356-3.074,1.561c-2.541,0.398-6.104,0.787-7.979-1.131c-0.534-0.549-0.916-1.935-1.078-4.206   c-0.65-6.958-0.313-14.303-0.314-21.339c0-3.211-0.106-6.919,0.072-10.162c0.031-0.764,0.177-1.34,0.437-1.726   c0.275-0.373,0.705-0.597,1.287-0.681c0.596-0.084,1.094-0.126,1.491-0.126c0.199,0,0.314-0.084,0.346-0.259   c0-0.218-0.23-0.323-0.689-0.323c-0.78,0-1.699,0.014-2.755,0.042c-1.133,0.056-1.808,0.084-2.044,0.084   c-0.78-0.057-2.458-0.099-5.029-0.127c-0.475,0-0.711,0.105-0.711,0.323c0,0.175,0.122,0.26,0.367,0.26   c0.536,0,1.033,0.042,1.5,0.126c0.751,0.112,1.256,0.365,1.516,0.765c0.236,0.351,0.367,0.904,0.391,1.642   c0.304,1.831,0.113,8.5,0.113,10.151v11.046C29.632,55.363,29.635,60.036,29.297,64.515z"/>
	<path fill="#424143" d="M52.344,40.247c-2.27,1.967-4.702,3.733-7.054,5.274l14.556,17.253c1.193,1.414,2.271,2.523,3.304,3.353   c2.486,1.999,4.343,2.643,5.473,2.948c-1.082-0.002-2.164-0.01-3.242-0.041c-4.088-0.119-7.716-0.78-10.146-4.23   c-3.285-4.665-8.858-12.874-12.434-17.713c-2.023,1.229-3.91,2.271-5.486,3.104c7.667-5.478,17.035-13.517,20.744-23.464   C58.035,32.359,56.065,36.899,52.344,40.247z"/>
	<path fill="#4D276C" d="M31.87,17.141L31.87,17.141L31.87,17.141C20.897,2.394-1.364,13.547,7.074,31.181   c3.941,8.237,12.845,14.433,19.351,19.016C19.872,46.732,7.924,39.662,3.238,30.388C-2.178,19.667,4.79,7.799,16.906,6.482   c5.531-0.601,11.314,1.489,14.963,7.286l0,0l0,0c3.65-5.796,9.432-7.887,14.963-7.286C58.95,7.798,65.918,19.667,60.501,30.388   c-0.856,1.694-1.954,3.314-3.218,4.851C66.413,16.746,44.756,0.066,31.87,17.141z"/>
	<path fill="#744B94" d="M31.864,5.332l-1.881,2.25l0,0l0,0L28.1,5.332C29.357,5.332,30.605,5.332,31.864,5.332z"/>
	<path fill="#4D276C" d="M33.744,7.582l-1.882-2.25l0,0l0,0l-1.883,2.25C31.238,7.582,32.485,7.582,33.744,7.582z"/>
	<path fill="#5E327B" d="M33.744,7.582l-1.882,2.23l0,0l0,0l-1.883-2.23C31.238,7.582,32.485,7.582,33.744,7.582z"/>
	<path fill="#5E327B" d="M35.625,5.332l-1.882,2.25l0,0l0,0l-1.882-2.25C33.118,5.332,34.367,5.332,35.625,5.332z"/>
	<path fill="#4D276C" d="M28.096,0.746l-2.325,1.763c1.409,0,2.804,0,4.211,0L28.096,0.746z"/>
	<path fill="#744B94" d="M28.096,5.329l-2.325-2.82c1.409,0,2.804,0,4.211,0L28.096,5.329z"/>
	<path fill="#5E327B" d="M31.858,0.744l-1.883,1.765l0,0l0,0l-1.881-1.765C29.352,0.744,30.6,0.744,31.858,0.744z"/>
	<path fill="#4D276C" d="M31.858,5.332l-1.883-2.823l0,0l0,0l-1.882,2.823C29.352,5.332,30.6,5.332,31.858,5.332z"/>
	<path fill="#4D276C" d="M33.74,2.509l-1.884-1.765l0,0l0,0l-1.882,1.765C31.233,2.509,32.48,2.509,33.74,2.509z"/>
	<path fill="#744B94" d="M35.619,0.744l-1.883,1.765l0,0l0,0l-1.882-1.765C33.112,0.744,34.36,0.744,35.619,0.744z"/>
	<path fill="#5E327B" d="M33.74,2.509l-1.884,2.823l0,0l0,0l-1.882-2.823C31.233,2.509,32.48,2.509,33.74,2.509z"/>
	<path fill="#4D276C" d="M35.619,5.332l-1.883-2.823l0,0l0,0l-1.882,2.823C33.112,5.332,34.36,5.332,35.619,5.332z"/>
	<path fill="#4D276C" d="M37.969,2.509l-2.342-1.765l0,0l0,0l-1.891,1.765C35.15,2.509,36.555,2.509,37.969,2.509z"/>
	<path fill="#744B94" d="M37.969,2.509l-2.342,2.823l0,0l0,0l-1.891-2.823C35.15,2.509,36.555,2.509,37.969,2.509z"/>
</g>
<div xmlns="" id="divScriptsUsed" style="display: none"/><script xmlns="" id="globalVarsDetection" src="chrome-extension://cmkdbmfndkfgebldhnkbfhlneefdaaip/js/wrs_env.js"/></svg>